<mxfile host="app.diagrams.net" agent="Mozilla/5.0 (Windows NT 10.0; Win64; x64) AppleWebKit/537.36 (KHTML, like Gecko) Chrome/128.0.0.0 Safari/537.36" version="24.7.10" pages="2">
  <diagram name="Página-1" id="p08aZDDK8pBDl3USONPD">
    <mxGraphModel grid="1" page="0" gridSize="10" guides="1" tooltips="1" connect="1" arrows="1" fold="1" pageScale="1" pageWidth="827" pageHeight="1169" math="0" shadow="0">
      <root>
        <mxCell id="0" />
        <mxCell id="1" parent="0" />
        <mxCell id="Ji-oIGAWIerKv66ho-yK-7" value="" style="whiteSpace=wrap;html=1;aspect=fixed;" vertex="1" parent="1">
          <mxGeometry x="-307" y="-68" width="1137" height="1137" as="geometry" />
        </mxCell>
        <mxCell id="gZStDKXQPfZlN32e2U8K-2" value="" style="whiteSpace=wrap;html=1;aspect=fixed;dashed=1;" vertex="1" parent="1">
          <mxGeometry x="-210" y="30" width="940" height="940" as="geometry" />
        </mxCell>
        <mxCell id="gZStDKXQPfZlN32e2U8K-8" style="rounded=0;orthogonalLoop=1;jettySize=auto;html=1;exitX=1;exitY=0.3333333333333333;exitDx=0;exitDy=0;exitPerimeter=0;entryX=0;entryY=0.5;entryDx=0;entryDy=0;" edge="1" parent="1" source="gZStDKXQPfZlN32e2U8K-1" target="gZStDKXQPfZlN32e2U8K-7">
          <mxGeometry relative="1" as="geometry" />
        </mxCell>
        <mxCell id="gZStDKXQPfZlN32e2U8K-9" style="rounded=0;orthogonalLoop=1;jettySize=auto;html=1;exitX=1;exitY=0.3333333333333333;exitDx=0;exitDy=0;exitPerimeter=0;entryX=0;entryY=0.5;entryDx=0;entryDy=0;" edge="1" parent="1" source="gZStDKXQPfZlN32e2U8K-1" target="gZStDKXQPfZlN32e2U8K-6">
          <mxGeometry relative="1" as="geometry" />
        </mxCell>
        <mxCell id="gZStDKXQPfZlN32e2U8K-10" style="rounded=0;orthogonalLoop=1;jettySize=auto;html=1;exitX=1;exitY=0.3333333333333333;exitDx=0;exitDy=0;exitPerimeter=0;entryX=0;entryY=0.5;entryDx=0;entryDy=0;" edge="1" parent="1" source="gZStDKXQPfZlN32e2U8K-1" target="XvTRn77Ywx6_f_S3jN6h-1">
          <mxGeometry relative="1" as="geometry" />
        </mxCell>
        <mxCell id="gZStDKXQPfZlN32e2U8K-11" style="rounded=0;orthogonalLoop=1;jettySize=auto;html=1;exitX=1;exitY=0.3333333333333333;exitDx=0;exitDy=0;exitPerimeter=0;entryX=0;entryY=0.5;entryDx=0;entryDy=0;" edge="1" parent="1" source="gZStDKXQPfZlN32e2U8K-1" target="gZStDKXQPfZlN32e2U8K-5">
          <mxGeometry relative="1" as="geometry" />
        </mxCell>
        <mxCell id="gZStDKXQPfZlN32e2U8K-12" style="rounded=0;orthogonalLoop=1;jettySize=auto;html=1;exitX=1;exitY=0.3333333333333333;exitDx=0;exitDy=0;exitPerimeter=0;entryX=0;entryY=0.5;entryDx=0;entryDy=0;" edge="1" parent="1" source="gZStDKXQPfZlN32e2U8K-1" target="-JQZK5l_OSxt9sbSh3OK-29">
          <mxGeometry relative="1" as="geometry" />
        </mxCell>
        <mxCell id="gZStDKXQPfZlN32e2U8K-1" value="Usuários&lt;div&gt;&lt;br&gt;&lt;/div&gt;" style="shape=umlActor;verticalLabelPosition=bottom;verticalAlign=top;html=1;outlineConnect=0;" vertex="1" parent="1">
          <mxGeometry x="-260" y="490" width="30" height="60" as="geometry" />
        </mxCell>
        <mxCell id="-JQZK5l_OSxt9sbSh3OK-2" value="Administrador&lt;div&gt;&lt;br&gt;&lt;/div&gt;" style="shape=umlActor;verticalLabelPosition=bottom;verticalAlign=top;html=1;outlineConnect=0;" vertex="1" parent="1">
          <mxGeometry x="740" y="490" width="30" height="60" as="geometry" />
        </mxCell>
        <mxCell id="-JQZK5l_OSxt9sbSh3OK-6" value="Cadastrar-se" style="ellipse;whiteSpace=wrap;html=1;" vertex="1" parent="1">
          <mxGeometry x="175" y="140" width="80" height="50" as="geometry" />
        </mxCell>
        <mxCell id="-JQZK5l_OSxt9sbSh3OK-7" value="Cadastrar Pet´s" style="ellipse;whiteSpace=wrap;html=1;" vertex="1" parent="1">
          <mxGeometry x="10" y="380" width="90" height="50" as="geometry" />
        </mxCell>
        <mxCell id="-JQZK5l_OSxt9sbSh3OK-8" value="Notificações" style="ellipse;whiteSpace=wrap;html=1;" vertex="1" parent="1">
          <mxGeometry x="-40" y="490" width="96" height="48" as="geometry" />
        </mxCell>
        <mxCell id="-JQZK5l_OSxt9sbSh3OK-5" value="Ver Postagens" style="ellipse;whiteSpace=wrap;html=1;" vertex="1" parent="1">
          <mxGeometry x="172.5" y="220" width="95" height="40" as="geometry" />
        </mxCell>
        <mxCell id="-JQZK5l_OSxt9sbSh3OK-9" value="Fazer login" style="ellipse;whiteSpace=wrap;html=1;" vertex="1" parent="1">
          <mxGeometry x="180" y="310" width="80" height="44" as="geometry" />
        </mxCell>
        <mxCell id="-JQZK5l_OSxt9sbSh3OK-14" value="" style="endArrow=classic;html=1;rounded=0;exitX=1;exitY=0.3333333333333333;exitDx=0;exitDy=0;exitPerimeter=0;entryX=0;entryY=0.5;entryDx=0;entryDy=0;" edge="1" parent="1" source="gZStDKXQPfZlN32e2U8K-1" target="-JQZK5l_OSxt9sbSh3OK-6">
          <mxGeometry width="50" height="50" relative="1" as="geometry">
            <mxPoint x="90" y="230" as="sourcePoint" />
            <mxPoint x="170" y="69" as="targetPoint" />
          </mxGeometry>
        </mxCell>
        <mxCell id="gZStDKXQPfZlN32e2U8K-3" value="Notificações de denúncias" style="ellipse;whiteSpace=wrap;html=1;" vertex="1" parent="1">
          <mxGeometry x="610" y="760" width="100" height="60" as="geometry" />
        </mxCell>
        <mxCell id="-JQZK5l_OSxt9sbSh3OK-15" value="" style="endArrow=classic;html=1;rounded=0;entryX=0;entryY=0.5;entryDx=0;entryDy=0;exitX=1;exitY=0.3333333333333333;exitDx=0;exitDy=0;exitPerimeter=0;" edge="1" parent="1" source="gZStDKXQPfZlN32e2U8K-1" target="-JQZK5l_OSxt9sbSh3OK-9">
          <mxGeometry width="50" height="50" relative="1" as="geometry">
            <mxPoint x="90" y="230" as="sourcePoint" />
            <mxPoint x="180" y="185" as="targetPoint" />
            <Array as="points">
              <mxPoint x="30" y="380" />
            </Array>
          </mxGeometry>
        </mxCell>
        <mxCell id="-JQZK5l_OSxt9sbSh3OK-16" value="" style="endArrow=classic;html=1;rounded=0;entryX=1;entryY=0.5;entryDx=0;entryDy=0;exitX=0;exitY=0.3333333333333333;exitDx=0;exitDy=0;exitPerimeter=0;" edge="1" parent="1" source="-JQZK5l_OSxt9sbSh3OK-2" target="-JQZK5l_OSxt9sbSh3OK-9">
          <mxGeometry width="50" height="50" relative="1" as="geometry">
            <mxPoint x="100" y="240" as="sourcePoint" />
            <mxPoint x="180" y="262" as="targetPoint" />
          </mxGeometry>
        </mxCell>
        <mxCell id="-JQZK5l_OSxt9sbSh3OK-17" value="" style="endArrow=classic;html=1;rounded=0;entryX=1;entryY=0.5;entryDx=0;entryDy=0;exitX=0;exitY=0.3333333333333333;exitDx=0;exitDy=0;exitPerimeter=0;" edge="1" parent="1" source="-JQZK5l_OSxt9sbSh3OK-2" target="-JQZK5l_OSxt9sbSh3OK-5">
          <mxGeometry width="50" height="50" relative="1" as="geometry">
            <mxPoint x="90" y="348" as="sourcePoint" />
            <mxPoint x="180" y="274" as="targetPoint" />
          </mxGeometry>
        </mxCell>
        <mxCell id="-JQZK5l_OSxt9sbSh3OK-18" value="" style="endArrow=classic;html=1;rounded=0;entryX=0;entryY=0.5;entryDx=0;entryDy=0;exitX=1;exitY=0.3333333333333333;exitDx=0;exitDy=0;exitPerimeter=0;" edge="1" parent="1" source="gZStDKXQPfZlN32e2U8K-1" target="-JQZK5l_OSxt9sbSh3OK-5">
          <mxGeometry width="50" height="50" relative="1" as="geometry">
            <mxPoint x="90" y="230" as="sourcePoint" />
            <mxPoint x="180" y="262" as="targetPoint" />
          </mxGeometry>
        </mxCell>
        <mxCell id="gZStDKXQPfZlN32e2U8K-4" value="Fazer postagens" style="ellipse;whiteSpace=wrap;html=1;" vertex="1" parent="1">
          <mxGeometry x="120" y="535" width="95" height="55" as="geometry" />
        </mxCell>
        <mxCell id="-JQZK5l_OSxt9sbSh3OK-22" value="" style="endArrow=classic;html=1;rounded=0;entryX=0;entryY=0.5;entryDx=0;entryDy=0;exitX=1;exitY=0.3333333333333333;exitDx=0;exitDy=0;exitPerimeter=0;" edge="1" parent="1" source="gZStDKXQPfZlN32e2U8K-1" target="-JQZK5l_OSxt9sbSh3OK-8">
          <mxGeometry width="50" height="50" relative="1" as="geometry">
            <mxPoint x="90" y="230" as="sourcePoint" />
            <mxPoint x="183" y="306" as="targetPoint" />
          </mxGeometry>
        </mxCell>
        <mxCell id="-JQZK5l_OSxt9sbSh3OK-24" value="" style="endArrow=classic;html=1;rounded=0;entryX=0;entryY=0.5;entryDx=0;entryDy=0;exitX=1;exitY=0.3333333333333333;exitDx=0;exitDy=0;exitPerimeter=0;" edge="1" parent="1" source="gZStDKXQPfZlN32e2U8K-1" target="-JQZK5l_OSxt9sbSh3OK-7">
          <mxGeometry width="50" height="50" relative="1" as="geometry">
            <mxPoint x="90.5" y="229" as="sourcePoint" />
            <mxPoint x="172.5" y="363" as="targetPoint" />
          </mxGeometry>
        </mxCell>
        <mxCell id="-JQZK5l_OSxt9sbSh3OK-26" value="" style="endArrow=classic;html=1;rounded=0;entryX=0;entryY=0.5;entryDx=0;entryDy=0;exitX=1;exitY=0.3333333333333333;exitDx=0;exitDy=0;exitPerimeter=0;" edge="1" parent="1" source="gZStDKXQPfZlN32e2U8K-1" target="gZStDKXQPfZlN32e2U8K-4">
          <mxGeometry width="50" height="50" relative="1" as="geometry">
            <mxPoint x="90" y="230" as="sourcePoint" />
            <mxPoint x="169.5" y="459" as="targetPoint" />
          </mxGeometry>
        </mxCell>
        <mxCell id="-JQZK5l_OSxt9sbSh3OK-28" value="" style="endArrow=classic;html=1;rounded=0;entryX=1;entryY=0;entryDx=0;entryDy=0;exitX=0;exitY=0.3333333333333333;exitDx=0;exitDy=0;exitPerimeter=0;" edge="1" parent="1" source="-JQZK5l_OSxt9sbSh3OK-2" target="gZStDKXQPfZlN32e2U8K-3">
          <mxGeometry width="50" height="50" relative="1" as="geometry">
            <mxPoint x="100" y="438" as="sourcePoint" />
            <mxPoint x="182" y="374" as="targetPoint" />
          </mxGeometry>
        </mxCell>
        <mxCell id="gZStDKXQPfZlN32e2U8K-5" value="Exclusão de Perfil" style="ellipse;whiteSpace=wrap;html=1;" vertex="1" parent="1">
          <mxGeometry x="165" y="40" width="100" height="60" as="geometry" />
        </mxCell>
        <mxCell id="-JQZK5l_OSxt9sbSh3OK-29" value="Excluir postagens" style="ellipse;whiteSpace=wrap;html=1;" vertex="1" parent="1">
          <mxGeometry x="-40" y="430" width="95" height="55" as="geometry" />
        </mxCell>
        <mxCell id="-JQZK5l_OSxt9sbSh3OK-31" value="demonstrar interesse em pets" style="ellipse;whiteSpace=wrap;html=1;" vertex="1" parent="1">
          <mxGeometry x="175" y="590" width="122.5" height="55" as="geometry" />
        </mxCell>
        <mxCell id="gZStDKXQPfZlN32e2U8K-6" value="Conversas/ chat" style="ellipse;whiteSpace=wrap;html=1;" vertex="1" parent="1">
          <mxGeometry x="350" y="690" width="100" height="60" as="geometry" />
        </mxCell>
        <mxCell id="-JQZK5l_OSxt9sbSh3OK-32" value="" style="endArrow=classic;html=1;rounded=0;entryX=0;entryY=0.5;entryDx=0;entryDy=0;" edge="1" parent="1" target="-JQZK5l_OSxt9sbSh3OK-31">
          <mxGeometry width="50" height="50" relative="1" as="geometry">
            <mxPoint x="-230" y="510" as="sourcePoint" />
            <mxPoint x="190" y="248" as="targetPoint" />
            <Array as="points" />
          </mxGeometry>
        </mxCell>
        <mxCell id="XvTRn77Ywx6_f_S3jN6h-1" value="Reagir as postagens" style="ellipse;whiteSpace=wrap;html=1;" vertex="1" parent="1">
          <mxGeometry x="270" y="650" width="95" height="40" as="geometry" />
        </mxCell>
        <mxCell id="gZStDKXQPfZlN32e2U8K-7" value="Denúncia postagens&lt;div&gt;&lt;br&gt;&lt;/div&gt;" style="ellipse;whiteSpace=wrap;html=1;" vertex="1" parent="1">
          <mxGeometry x="450" y="750" width="100" height="60" as="geometry" />
        </mxCell>
        <mxCell id="ZOwvirNOqnI5_YPqACpB-10" value="&amp;lt;&amp;lt;include&amp;gt;&amp;gt;" style="html=1;verticalAlign=bottom;labelBackgroundColor=none;endArrow=open;endFill=0;dashed=1;rounded=0;entryX=1;entryY=1;entryDx=0;entryDy=0;" edge="1" parent="1" source="gZStDKXQPfZlN32e2U8K-7" target="-JQZK5l_OSxt9sbSh3OK-9">
          <mxGeometry width="160" relative="1" as="geometry">
            <mxPoint x="220" y="530" as="sourcePoint" />
            <mxPoint x="380" y="530" as="targetPoint" />
          </mxGeometry>
        </mxCell>
        <mxCell id="KUz5P1Z2Eiqo1EqHWqlL-3" value="&amp;lt;&amp;lt;include&amp;gt;&amp;gt;" style="html=1;verticalAlign=bottom;labelBackgroundColor=none;endArrow=open;endFill=0;dashed=1;rounded=0;exitX=0.5;exitY=1;exitDx=0;exitDy=0;entryX=0.5;entryY=0;entryDx=0;entryDy=0;" edge="1" parent="1" source="gZStDKXQPfZlN32e2U8K-5" target="-JQZK5l_OSxt9sbSh3OK-6">
          <mxGeometry width="160" relative="1" as="geometry">
            <mxPoint x="240" y="120" as="sourcePoint" />
            <mxPoint x="400" y="120" as="targetPoint" />
          </mxGeometry>
        </mxCell>
        <mxCell id="ZOwvirNOqnI5_YPqACpB-11" value="&amp;lt;&amp;lt;include&amp;gt;&amp;gt;" style="html=1;verticalAlign=bottom;labelBackgroundColor=none;endArrow=open;endFill=0;dashed=1;rounded=0;exitX=1;exitY=1;exitDx=0;exitDy=0;entryX=1;entryY=0.5;entryDx=0;entryDy=0;" edge="1" parent="1" source="gZStDKXQPfZlN32e2U8K-5" target="-JQZK5l_OSxt9sbSh3OK-9">
          <mxGeometry width="160" relative="1" as="geometry">
            <mxPoint x="300" y="150" as="sourcePoint" />
            <mxPoint x="460" y="150" as="targetPoint" />
            <Array as="points">
              <mxPoint x="320" y="160" />
            </Array>
          </mxGeometry>
        </mxCell>
        <mxCell id="KUz5P1Z2Eiqo1EqHWqlL-4" value="&amp;lt;&amp;lt;extend&amp;gt;&amp;gt;" style="html=1;verticalAlign=bottom;labelBackgroundColor=none;endArrow=open;endFill=0;dashed=1;rounded=0;exitX=0.5;exitY=1;exitDx=0;exitDy=0;entryX=0.5;entryY=0;entryDx=0;entryDy=0;" edge="1" parent="1" source="-JQZK5l_OSxt9sbSh3OK-5" target="-JQZK5l_OSxt9sbSh3OK-9">
          <mxGeometry width="160" relative="1" as="geometry">
            <mxPoint x="20" y="300" as="sourcePoint" />
            <mxPoint x="180" y="300" as="targetPoint" />
          </mxGeometry>
        </mxCell>
        <mxCell id="KUz5P1Z2Eiqo1EqHWqlL-5" value="&amp;lt;&amp;lt;include&amp;gt;&amp;gt;" style="html=1;verticalAlign=bottom;labelBackgroundColor=none;endArrow=open;endFill=0;dashed=1;rounded=0;exitX=1;exitY=0.5;exitDx=0;exitDy=0;entryX=0;entryY=1;entryDx=0;entryDy=0;" edge="1" parent="1" source="-JQZK5l_OSxt9sbSh3OK-7" target="-JQZK5l_OSxt9sbSh3OK-9">
          <mxGeometry width="160" relative="1" as="geometry">
            <mxPoint x="45" y="380" as="sourcePoint" />
            <mxPoint x="205" y="380" as="targetPoint" />
          </mxGeometry>
        </mxCell>
        <mxCell id="KUz5P1Z2Eiqo1EqHWqlL-6" value="&amp;lt;&amp;lt;include&amp;gt;&amp;gt;" style="html=1;verticalAlign=bottom;labelBackgroundColor=none;endArrow=open;endFill=0;dashed=1;rounded=0;exitX=1;exitY=0;exitDx=0;exitDy=0;entryX=0.25;entryY=0.909;entryDx=0;entryDy=0;entryPerimeter=0;" edge="1" parent="1" source="-JQZK5l_OSxt9sbSh3OK-8" target="-JQZK5l_OSxt9sbSh3OK-9">
          <mxGeometry width="160" relative="1" as="geometry">
            <mxPoint x="80" y="425" as="sourcePoint" />
            <mxPoint x="201" y="357" as="targetPoint" />
          </mxGeometry>
        </mxCell>
        <mxCell id="KUz5P1Z2Eiqo1EqHWqlL-7" value="&amp;lt;&amp;lt;include&amp;gt;&amp;gt;" style="html=1;verticalAlign=bottom;labelBackgroundColor=none;endArrow=open;endFill=0;dashed=1;rounded=0;exitX=0.5;exitY=0;exitDx=0;exitDy=0;" edge="1" parent="1" source="gZStDKXQPfZlN32e2U8K-6">
          <mxGeometry width="160" relative="1" as="geometry">
            <mxPoint x="290" y="617.5" as="sourcePoint" />
            <mxPoint x="240" y="350" as="targetPoint" />
          </mxGeometry>
        </mxCell>
        <mxCell id="3gjjefRYcq3H4YG6GXcR-3" value="&amp;lt;&amp;lt;include&amp;gt;&amp;gt;" style="html=1;verticalAlign=bottom;labelBackgroundColor=none;endArrow=open;endFill=0;dashed=1;rounded=0;fontSize=12;startSize=8;endSize=8;curved=1;exitX=0.5;exitY=0;exitDx=0;exitDy=0;entryX=0.343;entryY=1.05;entryDx=0;entryDy=0;entryPerimeter=0;" edge="1" parent="1" source="gZStDKXQPfZlN32e2U8K-4" target="-JQZK5l_OSxt9sbSh3OK-9">
          <mxGeometry width="160" relative="1" as="geometry">
            <mxPoint x="190" y="510" as="sourcePoint" />
            <mxPoint x="210" y="354" as="targetPoint" />
          </mxGeometry>
        </mxCell>
        <mxCell id="KUz5P1Z2Eiqo1EqHWqlL-9" value="&amp;lt;&amp;lt;include&amp;gt;&amp;gt;" style="html=1;verticalAlign=bottom;labelBackgroundColor=none;endArrow=open;endFill=0;dashed=1;rounded=0;fontSize=12;startSize=8;endSize=8;curved=1;exitX=0.5;exitY=0;exitDx=0;exitDy=0;entryX=0.5;entryY=1;entryDx=0;entryDy=0;" edge="1" parent="1" target="-JQZK5l_OSxt9sbSh3OK-9">
          <mxGeometry width="160" relative="1" as="geometry">
            <mxPoint x="240" y="594" as="sourcePoint" />
            <mxPoint x="220" y="360" as="targetPoint" />
          </mxGeometry>
        </mxCell>
        <mxCell id="KUz5P1Z2Eiqo1EqHWqlL-10" value="&amp;lt;&amp;lt;include&amp;gt;&amp;gt;" style="html=1;verticalAlign=bottom;labelBackgroundColor=none;endArrow=open;endFill=0;dashed=1;rounded=0;exitX=0.5;exitY=0;exitDx=0;exitDy=0;entryX=0.65;entryY=0.977;entryDx=0;entryDy=0;entryPerimeter=0;" edge="1" parent="1" source="XvTRn77Ywx6_f_S3jN6h-1" target="-JQZK5l_OSxt9sbSh3OK-9">
          <mxGeometry width="160" relative="1" as="geometry">
            <mxPoint x="384" y="692.5" as="sourcePoint" />
            <mxPoint x="230" y="360" as="targetPoint" />
          </mxGeometry>
        </mxCell>
        <mxCell id="ZOwvirNOqnI5_YPqACpB-16" value="&amp;lt;&amp;lt;include&amp;gt;&amp;gt;" style="html=1;verticalAlign=bottom;labelBackgroundColor=none;endArrow=open;endFill=0;dashed=1;rounded=0;exitX=1;exitY=0.5;exitDx=0;exitDy=0;entryX=0.5;entryY=0;entryDx=0;entryDy=0;" edge="1" parent="1" source="-JQZK5l_OSxt9sbSh3OK-29" target="gZStDKXQPfZlN32e2U8K-4">
          <mxGeometry width="160" relative="1" as="geometry">
            <mxPoint x="80" y="490" as="sourcePoint" />
            <mxPoint x="240" y="490" as="targetPoint" />
          </mxGeometry>
        </mxCell>
        <mxCell id="KUz5P1Z2Eiqo1EqHWqlL-11" value="&amp;lt;&amp;lt;extend&amp;gt;&amp;gt;" style="html=1;verticalAlign=bottom;labelBackgroundColor=none;endArrow=open;endFill=0;dashed=1;rounded=0;exitX=1;exitY=0.5;exitDx=0;exitDy=0;entryX=0;entryY=0;entryDx=0;entryDy=0;" edge="1" parent="1" source="-JQZK5l_OSxt9sbSh3OK-8" target="gZStDKXQPfZlN32e2U8K-4">
          <mxGeometry width="160" relative="1" as="geometry">
            <mxPoint x="90" y="490" as="sourcePoint" />
            <mxPoint x="90" y="560" as="targetPoint" />
          </mxGeometry>
        </mxCell>
        <mxCell id="KUz5P1Z2Eiqo1EqHWqlL-13" value="&amp;lt;&amp;lt;include&amp;gt;&amp;gt;" style="html=1;verticalAlign=bottom;labelBackgroundColor=none;endArrow=open;endFill=0;dashed=1;rounded=0;entryX=0.977;entryY=0.672;entryDx=0;entryDy=0;exitX=0;exitY=0.5;exitDx=0;exitDy=0;entryPerimeter=0;" edge="1" parent="1" source="gZStDKXQPfZlN32e2U8K-3" target="gZStDKXQPfZlN32e2U8K-7">
          <mxGeometry x="-0.028" width="160" relative="1" as="geometry">
            <mxPoint x="620" y="811" as="sourcePoint" />
            <mxPoint x="430" y="820" as="targetPoint" />
            <mxPoint as="offset" />
          </mxGeometry>
        </mxCell>
        <mxCell id="dzajHIe-cCK1zHmcPNVj-2" value="&amp;lt;&amp;lt;include&amp;gt;&amp;gt;" style="html=1;verticalAlign=bottom;labelBackgroundColor=none;endArrow=open;endFill=0;dashed=1;rounded=0;entryX=1;entryY=0.5;entryDx=0;entryDy=0;exitX=0.5;exitY=0;exitDx=0;exitDy=0;" edge="1" parent="1" source="gZStDKXQPfZlN32e2U8K-3" target="-JQZK5l_OSxt9sbSh3OK-9">
          <mxGeometry width="160" relative="1" as="geometry">
            <mxPoint x="494" y="762" as="sourcePoint" />
            <mxPoint x="258" y="357" as="targetPoint" />
          </mxGeometry>
        </mxCell>
      </root>
    </mxGraphModel>
  </diagram>
  <diagram id="DIkESaJ0Ypv4P9WUFkY_" name="Página-2">
    <mxGraphModel grid="1" page="1" gridSize="10" guides="1" tooltips="1" connect="1" arrows="1" fold="1" pageScale="1" pageWidth="827" pageHeight="1169" math="0" shadow="0">
      <root>
        <mxCell id="0" />
        <mxCell id="1" parent="0" />
      </root>
    </mxGraphModel>
  </diagram>
</mxfile>
